<svg width="64" height="64" viewBox="0 0 64 64" fill="none" xmlns="http://www.w3.org/2000/svg">
<circle cx="32" cy="32" r="32" fill="#EDFCE2"/>
<path d="M32.0002 16.0002C23.1682 16.0002 16.0002 23.1682 16.0002 32.0002C16.0002 40.8322 23.1682 48.0002 32.0002 48.0002C40.8322 48.0002 48.0002 40.8322 48.0002 32.0002C48.0002 23.1682 40.8322 16.0002 32.0002 16.0002ZM32.0002 44.8002C24.9442 44.8002 19.2002 39.0562 19.2002 32.0002C19.2002 24.9442 24.9442 19.2002 32.0002 19.2002C39.0562 19.2002 44.8002 24.9442 44.8002 32.0002C44.8002 39.0562 39.0562 44.8002 32.0002 44.8002ZM37.6642 26.9122L29.7442 34.8322L26.3522 31.4402C26.2041 31.2921 26.0283 31.1745 25.8347 31.0944C25.6412 31.0142 25.4337 30.973 25.2242 30.973C25.0148 30.973 24.8073 31.0142 24.6138 31.0944C24.4202 31.1745 24.2444 31.2921 24.0962 31.4402C23.9481 31.5883 23.8306 31.7642 23.7504 31.9577C23.6703 32.1513 23.629 32.3587 23.629 32.5682C23.629 32.7777 23.6703 32.9851 23.7504 33.1787C23.8306 33.3722 23.9481 33.5481 24.0962 33.6962L28.6242 38.2242C29.2482 38.8482 30.2562 38.8482 30.8802 38.2242L39.9362 29.1682C40.0846 29.0202 40.2022 28.8443 40.2825 28.6508C40.3628 28.4572 40.4042 28.2497 40.4042 28.0402C40.4042 27.8306 40.3628 27.6231 40.2825 27.4296C40.2022 27.236 40.0846 27.0602 39.9362 26.9122C39.2962 26.2882 38.2882 26.2882 37.6642 26.9122Z" fill="#3F9F4A"/>
</svg>
